<svg width="668" height="188" viewBox="0 0 668 188" fill="none" xmlns="http://www.w3.org/2000/svg">
<path fill-rule="evenodd" clip-rule="evenodd" d="M93.5191 187.038C145.168 187.038 187.038 145.168 187.038 93.5191C187.038 41.8699 145.168 0 93.5191 0C41.8699 0 0 41.8699 0 93.5191C0 145.168 41.8699 187.038 93.5191 187.038ZM22.0484 52.0424C21.8694 52.0782 21.4757 52.1856 21.0821 52.3287C35.3981 27.0251 62.5629 9.95315 93.7361 9.95315C139.834 9.95315 177.199 47.3897 177.199 93.4874C177.199 139.585 139.834 176.986 93.7003 176.986C76.3063 176.986 62.205 162.885 62.205 145.491C62.205 138.726 64.3524 132.463 68.003 127.309C68.0209 127.291 68.0298 127.273 68.0388 127.255C68.0477 127.238 68.0567 127.22 68.0746 127.202C68.5756 126.343 69.2556 125.52 70.043 124.768C75.8052 118.183 84.2875 114.031 93.7361 114.031C99.5341 114.031 104.974 115.606 109.663 118.362L122.297 130.888C123.764 133.071 136.219 132.356 138.402 130.888C140.156 129.743 140.049 124.016 139.941 121.654C139.905 121.01 140.156 120.366 140.657 119.936C142.339 118.469 146.061 115.176 147.207 114.031C148.28 112.921 148.567 108.949 148.638 107.016C148.674 106.372 148.996 105.763 149.497 105.37C151.573 103.652 152.504 101.003 152.861 99.5717C153.04 98.9991 152.933 98.3907 152.611 97.8896L141.087 79.565C140.8 79.1356 140.693 78.6345 140.764 78.1334C140.943 76.6302 140.872 73.0512 136.971 68.5775C131.817 62.7079 106.907 48.7855 103.256 48.0697C100.5 47.5328 96.5277 47.7834 94.7024 47.9623C94.0582 48.0339 93.4498 47.8192 92.9845 47.3539C90.515 44.8844 82.3906 36.8674 80.5295 35.6147C78.4557 34.2208 77.5122 35.0552 76.9627 35.5411C76.9337 35.5667 76.9058 35.5914 76.8789 35.6147C76.0916 36.3305 74.7673 41.3769 74.2663 44.5622C74.0873 45.6717 73.0494 46.4591 71.9041 46.3518C57.8028 44.9202 34.396 49.3581 22.0484 52.0424Z" fill="white"/>
<path d="M231.649 134.804V51.0657H266.24C272.51 51.0657 277.921 52.2923 282.473 54.7456C287.052 57.1716 290.582 60.5653 293.063 64.9267C295.543 69.2608 296.784 74.3037 296.784 80.0552C296.784 85.8341 295.516 90.8905 292.981 95.2247C290.473 99.5315 286.889 102.871 282.228 105.242C277.566 107.614 272.033 108.799 265.627 108.799H244.284V92.8532H261.865C264.918 92.8532 267.467 92.3216 269.511 91.2585C271.583 90.1954 273.15 88.7099 274.214 86.8017C275.277 84.8664 275.808 82.6175 275.808 80.0552C275.808 77.4657 275.277 75.2305 274.214 73.3496C273.15 71.4415 271.583 69.9695 269.511 68.9337C267.44 67.8979 264.891 67.38 261.865 67.38H251.889V134.804H231.649ZM319.913 135.867C315.906 135.867 312.349 135.199 309.241 133.864C306.161 132.501 303.722 130.456 301.922 127.731C300.151 124.977 299.265 121.529 299.265 117.386C299.265 113.897 299.878 110.953 301.105 108.554C302.331 106.155 304.021 104.206 306.175 102.707C308.328 101.208 310.809 100.077 313.616 99.3135C316.424 98.523 319.422 97.9914 322.612 97.7188C326.183 97.3917 329.058 97.051 331.239 96.6966C333.42 96.315 335.001 95.7835 335.982 95.102C336.991 94.3933 337.495 93.3983 337.495 92.1172V91.9127C337.495 89.8138 336.773 88.1919 335.328 87.0471C333.883 85.9022 331.934 85.3298 329.481 85.3298C326.837 85.3298 324.711 85.9022 323.102 87.0471C321.494 88.1919 320.472 89.7729 320.036 91.7901L301.595 91.1359C302.141 87.3197 303.544 83.9123 305.807 80.9139C308.097 77.8882 311.231 75.5167 315.211 73.7994C319.218 72.0548 324.029 71.1826 329.644 71.1826C333.651 71.1826 337.345 71.6596 340.725 72.6136C344.105 73.5404 347.049 74.9034 349.557 76.7024C352.065 78.4742 354 80.6549 355.363 83.2445C356.753 85.8341 357.448 88.7916 357.448 92.1172V134.804H338.64V126.054H338.149C337.032 128.18 335.6 129.979 333.856 131.451C332.139 132.923 330.108 134.027 327.764 134.763C325.447 135.499 322.83 135.867 319.913 135.867ZM326.087 122.783C328.241 122.783 330.176 122.347 331.893 121.475C333.638 120.602 335.028 119.403 336.064 117.877C337.1 116.323 337.618 114.524 337.618 112.479V106.51C337.045 106.81 336.35 107.082 335.532 107.327C334.742 107.573 333.87 107.805 332.916 108.023C331.961 108.241 330.98 108.431 329.972 108.595C328.963 108.759 327.995 108.908 327.069 109.045C325.188 109.345 323.579 109.808 322.244 110.435C320.935 111.062 319.927 111.88 319.218 112.888C318.537 113.87 318.196 115.042 318.196 116.405C318.196 118.476 318.932 120.057 320.404 121.148C321.903 122.238 323.798 122.783 326.087 122.783ZM387.365 98.9864V134.804H367.371V72.0003H386.384V83.5307H387.079C388.469 79.6872 390.841 76.6752 394.193 74.4945C397.546 72.2865 401.54 71.1826 406.174 71.1826C410.59 71.1826 414.419 72.1775 417.663 74.1674C420.934 76.13 423.469 78.8831 425.268 82.4267C427.095 85.9431 427.994 90.0592 427.967 94.7749V134.804H407.973V98.7001C408 95.211 407.114 92.4852 405.315 90.5226C403.543 88.5599 401.076 87.5786 397.914 87.5786C395.815 87.5786 393.962 88.042 392.354 88.9688C390.773 89.8683 389.546 91.1631 388.674 92.8532C387.829 94.5432 387.392 96.5876 387.365 98.9864ZM473.493 72.0003V86.72H433.872V72.0003H473.493ZM442.173 56.9535H462.167V115.055C462.167 116.282 462.358 117.277 462.739 118.04C463.148 118.776 463.734 119.308 464.497 119.635C465.261 119.935 466.174 120.085 467.237 120.085C468 120.085 468.804 120.016 469.649 119.88C470.522 119.717 471.176 119.58 471.612 119.471L474.638 133.905C473.684 134.177 472.334 134.518 470.59 134.927C468.872 135.336 466.814 135.595 464.416 135.704C459.727 135.922 455.707 135.377 452.354 134.068C449.028 132.733 446.479 130.661 444.708 127.853C442.963 125.046 442.118 121.516 442.173 117.263V56.9535ZM502.735 98.9864V134.804H482.741V51.0657H502.081V83.5307H502.776C504.193 79.66 506.51 76.6343 509.727 74.4536C512.971 72.2729 516.937 71.1826 521.625 71.1826C526.041 71.1826 529.885 72.1639 533.156 74.1265C536.427 76.0619 538.962 78.8013 540.761 82.345C542.587 85.8886 543.487 90.0319 543.459 94.7749V134.804H523.465V98.7001C523.492 95.211 522.62 92.4852 520.848 90.5226C519.077 88.5599 516.582 87.5786 513.366 87.5786C511.267 87.5786 509.413 88.042 507.805 88.9688C506.224 89.8683 504.984 91.1631 504.084 92.8532C503.212 94.5432 502.762 96.5876 502.735 98.9864ZM582.995 135.99C576.426 135.99 570.756 134.695 565.986 132.106C561.243 129.489 557.59 125.768 555.028 120.943C552.493 116.091 551.225 110.326 551.225 103.648C551.225 97.16 552.506 91.4902 555.069 86.6382C557.631 81.7589 561.243 77.97 565.904 75.2713C570.565 72.5455 576.058 71.1826 582.382 71.1826C586.852 71.1826 590.941 71.8776 594.648 73.2678C598.355 74.658 601.558 76.7161 604.257 79.4419C606.956 82.1678 609.054 85.5342 610.554 89.5412C612.053 93.521 612.803 98.0868 612.803 103.239V108.227H558.217V96.6149H594.198C594.171 94.4887 593.667 92.5942 592.686 90.9314C591.704 89.2687 590.355 87.9739 588.638 87.0471C586.948 86.093 584.999 85.616 582.791 85.616C580.556 85.616 578.552 86.1203 576.78 87.1289C575.008 88.1102 573.605 89.4595 572.569 91.1768C571.533 92.8668 570.988 94.7885 570.933 96.942V108.759C570.933 111.321 571.438 113.57 572.446 115.505C573.455 117.413 574.886 118.899 576.739 119.962C578.593 121.025 580.801 121.557 583.363 121.557C585.135 121.557 586.743 121.311 588.188 120.821C589.633 120.33 590.873 119.608 591.909 118.653C592.945 117.699 593.721 116.527 594.239 115.137L612.598 115.669C611.835 119.785 610.158 123.369 607.569 126.422C605.007 129.448 601.64 131.806 597.47 133.496C593.299 135.159 588.474 135.99 582.995 135.99ZM620.711 134.804V72.0003H640.133V83.4489H640.787C641.932 79.3056 643.8 76.2254 646.389 74.2083C648.979 72.1639 651.991 71.1417 655.425 71.1417C656.352 71.1417 657.306 71.2098 658.287 71.3461C659.269 71.4551 660.182 71.6323 661.027 71.8777V89.255C660.073 88.9279 658.819 88.669 657.265 88.4782C655.739 88.2873 654.376 88.1919 653.177 88.1919C650.805 88.1919 648.665 88.7235 646.757 89.7866C644.876 90.8224 643.391 92.2807 642.3 94.1616C641.237 96.0152 640.706 98.1959 640.706 100.704V134.804H620.711Z" fill="white"/>
</svg>
