<svg width="371" height="283" viewBox="0 0 371 283" fill="none" xmlns="http://www.w3.org/2000/svg">
<path fill-rule="evenodd" clip-rule="evenodd" d="M171.589 6.76584L165.55 0.357441C175.993 -0.988049 203.547 0.737346 230.222 18.4028C230.568 20.8427 230.494 23.2748 230.494 23.2748L232.459 24.3388L232.471 24.3556L232.475 24.3307L232.515 24.3551C233.617 26.2484 234.732 29.0713 235.444 32.3927C236.305 36.4117 236.55 41.0384 235.546 45.4631C234.534 49.921 232.613 53.6005 230.733 56.2916C229.343 58.28 228.018 59.6702 227.147 60.4313C223.74 60.5031 217.397 62.7885 215.583 70.7127C210.119 73.8397 201.541 76.9654 190.21 76.9654C179.386 76.9654 168.344 73.8307 160.045 67.7601C151.778 61.7141 146.226 52.7643 146.226 40.9813C146.226 31.6082 150.427 24.2865 155.754 18.9019C161.099 13.4997 168.405 9.12266 172.643 7.66996L171.589 6.76584ZM218.397 22.1414C216.297 24.4303 214.333 25.5285 213.773 25.8263C201.51 23.0968 197.092 16.4584 197.092 16.4584C208.659 16.3837 219.099 19.2625 226.737 24.1325C226.737 24.1325 222.602 22.7304 218.397 22.1414Z" fill="white"/>
<path d="M165.378 8.53852C139.086 13.8337 119.019 37.5095 119.019 66.1395C119.019 102.336 149.577 132.243 187.272 132.243C215.419 132.243 238.85 115.012 251.101 91.9578C234.808 95.8267 215.354 88.9481 215.23 73.9122C209.365 76.9307 200.92 79.6103 190.21 79.6103C178.921 79.6103 167.31 76.3496 158.486 69.8959C149.629 63.4176 143.585 53.7141 143.585 40.9813C143.585 30.7419 148.194 22.7857 153.878 17.0405C157.166 13.748 161.675 10.6233 165.378 8.53852Z" fill="white"/>
<path d="M238.026 31.8377C237.67 30.1757 237.214 28.6039 236.697 27.1754C243.765 32.4638 249.269 39.6809 248.81 49.7367C248.15 64.2205 239.412 69.919 233.817 70.8688C236.503 66.3574 234.265 63.5082 233.37 62.5584C232.934 62.0963 232.035 61.3181 230.491 60.8325C231.255 59.9946 232.079 58.9786 232.897 57.8079C234.935 54.8919 237.021 50.9012 238.122 46.0492C239.231 41.1639 238.948 36.1369 238.026 31.8377Z" fill="white"/>
<path d="M218.194 152.949C227.865 152.949 233.939 155.687 239.694 160.598L233.46 168.085C229.144 164.382 224.828 162.127 217.795 162.127C207.564 162.127 199.652 171.145 199.652 181.933L199.657 182.604C199.876 193.937 207.413 202.222 218.674 202.222C224.029 202.222 228.744 200.531 232.181 197.955V187.488L241.692 178.793V202.463C236.097 207.213 228.265 211.239 218.354 211.239C200.851 211.239 189.342 198.679 189.342 182.255L189.346 181.58C189.601 166.025 201.435 152.949 218.194 152.949ZM281.49 152.949C298.674 152.949 310.662 166.072 310.662 181.933L310.658 182.602C310.4 198.16 298.329 211.239 281.33 211.239C264.147 211.239 252.158 198.116 252.158 182.255L252.162 181.586C252.42 166.028 264.491 152.949 281.49 152.949ZM33.7274 153.513L58.3437 210.273L48.3365 210.272L29.0119 165.348L9.82828 210.272L-0.000244141 210.273L24.6161 153.513H33.7274ZM160.518 153.513L185.135 210.273L175.127 210.272L155.803 165.348L136.619 210.272L126.791 210.273L151.407 153.513H160.518ZM330.381 153.915L360.352 192.883V153.915H370.023V210.273H361.791L330.94 170.179V210.273H321.27V153.915H330.381ZM281.33 162.127C270.221 162.127 262.468 170.984 262.468 181.933L262.473 182.576C262.699 193.307 270.465 202.061 281.49 202.061C292.599 202.061 300.352 193.205 300.352 182.255L300.347 181.612C300.121 170.881 292.355 162.127 281.33 162.127Z" fill="white"/>
<path d="M95.1858 152.949C102.233 152.949 107.758 155.077 111.362 158.678C114.325 161.87 116.006 166.043 116.006 171.035L116.004 171.505C115.888 180.53 110.635 186.036 103.217 188.394L102.713 188.549L117.848 210.236H106.157L92.3831 190.267L85.1533 190.266L90.2267 181.345L94.4651 181.347C101.352 181.347 105.791 177.83 105.989 172.17L105.996 171.772L105.995 171.39C105.896 165.312 101.666 162.115 94.3851 162.115H80.0511L80.0495 179.824L80.0418 179.823V192.598L80.0495 192.594L80.0511 210.236H70.2014V152.949H95.1858Z" fill="white"/>
<path d="M41.7284 229.663H65.8802V233.397L45.6902 251.911L45.195 250.615H65.8802V254.349H41.7284V250.615L61.9565 232.102L62.4136 233.397H41.7284V229.663ZM80.0442 242.349L80.0061 240.254L95.7771 254.349H89.6439L75.5109 241.397L88.044 229.663H94.101L80.0442 242.349ZM71.2063 229.663H75.549V254.349H71.2063V229.663ZM108.408 254.349V229.663H122.998C124.826 229.663 126.414 229.93 127.76 230.463C129.106 230.971 130.147 231.771 130.883 232.863C131.62 233.93 131.988 235.301 131.988 236.978C131.988 238.095 131.798 239.06 131.417 239.873C131.036 240.66 130.503 241.308 129.817 241.816C129.131 242.324 128.331 242.717 127.417 242.997C126.528 243.276 125.576 243.454 124.56 243.53L124.179 243.263C125.804 243.289 127.15 243.441 128.217 243.72C129.284 243.974 130.096 244.469 130.655 245.206C131.214 245.917 131.493 246.971 131.493 248.368V254.349H127.188V248.596C127.188 247.631 127.011 246.882 126.655 246.349C126.325 245.79 125.741 245.409 124.903 245.206C124.09 244.977 122.922 244.863 121.398 244.863H112.751V254.349H108.408ZM112.751 241.32H122.998C124.522 241.32 125.677 240.939 126.465 240.178C127.252 239.416 127.645 238.412 127.645 237.168C127.645 235.974 127.252 235.06 126.465 234.425C125.677 233.765 124.522 233.435 122.998 233.435H112.751V241.32ZM141.619 243.835V250.615H158.952V254.349H137.276V229.663H158.914V233.397H141.619V240.254H155.79V243.835H141.619ZM162.572 246.158H166.801C166.902 247.098 167.27 247.949 167.905 248.711C168.566 249.447 169.429 250.031 170.496 250.463C171.588 250.869 172.832 251.073 174.229 251.073C175.473 251.073 176.502 250.92 177.315 250.615C178.127 250.311 178.724 249.892 179.105 249.358C179.511 248.8 179.714 248.152 179.714 247.415C179.714 246.679 179.473 246.108 178.991 245.701C178.534 245.269 177.822 244.914 176.857 244.635C175.892 244.33 174.661 244.038 173.162 243.758C171.918 243.53 170.712 243.225 169.543 242.844C168.375 242.463 167.321 241.981 166.381 241.397C165.467 240.812 164.743 240.101 164.21 239.263C163.677 238.4 163.41 237.384 163.41 236.216C163.41 234.895 163.778 233.701 164.515 232.635C165.277 231.568 166.394 230.73 167.867 230.121C169.34 229.511 171.131 229.206 173.238 229.206C176.464 229.206 178.927 229.956 180.629 231.454C182.33 232.927 183.156 234.933 183.105 237.473H178.953C178.876 235.873 178.292 234.717 177.2 234.006C176.108 233.295 174.724 232.94 173.048 232.94C171.55 232.94 170.292 233.206 169.277 233.74C168.261 234.273 167.753 235.136 167.753 236.33C167.753 236.838 167.867 237.282 168.096 237.663C168.35 238.019 168.756 238.349 169.315 238.654C169.873 238.933 170.635 239.212 171.6 239.492C172.591 239.746 173.797 240.025 175.219 240.33C176.438 240.533 177.581 240.812 178.648 241.168C179.714 241.524 180.641 241.968 181.429 242.501C182.241 243.035 182.876 243.72 183.333 244.558C183.791 245.396 184.019 246.425 184.019 247.644C184.019 249.041 183.664 250.285 182.953 251.377C182.241 252.444 181.149 253.295 179.676 253.93C178.229 254.539 176.349 254.844 174.038 254.844C172.286 254.844 170.75 254.641 169.429 254.234C168.134 253.803 167.029 253.257 166.115 252.596C165.201 251.911 164.464 251.174 163.905 250.387C163.372 249.6 162.991 248.838 162.762 248.101C162.559 247.339 162.496 246.692 162.572 246.158ZM192.845 243.835V250.615H210.178V254.349H188.503V229.663H210.14V233.397H192.845V240.254H207.017V243.835H192.845ZM218.865 248.558V244.863H233.57V248.558H218.865ZM213.151 254.349L223.932 229.663H228.579L239.436 254.349H234.75L225.303 232.063H227.208L217.798 254.349H213.151ZM243.115 254.349V229.663H257.705C259.533 229.663 261.12 229.93 262.466 230.463C263.812 230.971 264.854 231.771 265.59 232.863C266.327 233.93 266.695 235.301 266.695 236.978C266.695 238.095 266.504 239.06 266.124 239.873C265.743 240.66 265.209 241.308 264.524 241.816C263.838 242.324 263.038 242.717 262.124 242.997C261.235 243.276 260.282 243.454 259.267 243.53L258.886 243.263C260.511 243.289 261.857 243.441 262.924 243.72C263.99 243.974 264.803 244.469 265.362 245.206C265.92 245.917 266.2 246.971 266.2 248.368V254.349H261.895V248.596C261.895 247.631 261.717 246.882 261.362 246.349C261.032 245.79 260.447 245.409 259.609 245.206C258.797 244.977 257.628 244.863 256.105 244.863H247.457V254.349H243.115ZM247.457 241.32H257.705C259.228 241.32 260.384 240.939 261.171 240.178C261.959 239.416 262.352 238.412 262.352 237.168C262.352 235.974 261.959 235.06 261.171 234.425C260.384 233.765 259.228 233.435 257.705 233.435H247.457V241.32ZM298.001 245.701C297.747 247.606 297.074 249.244 295.982 250.615C294.89 251.961 293.43 253.003 291.601 253.739C289.798 254.45 287.69 254.806 285.278 254.806C283.195 254.806 281.278 254.526 279.526 253.968C277.799 253.409 276.288 252.596 274.992 251.53C273.723 250.438 272.732 249.104 272.021 247.53C271.335 245.93 270.992 244.101 270.992 242.044C270.992 239.962 271.335 238.133 272.021 236.559C272.732 234.984 273.723 233.651 274.992 232.559C276.288 231.441 277.799 230.603 279.526 230.044C281.278 229.486 283.195 229.206 285.278 229.206C287.716 229.206 289.836 229.575 291.64 230.311C293.468 231.048 294.928 232.102 296.02 233.473C297.112 234.844 297.773 236.495 298.001 238.425H293.811C293.455 237.282 292.897 236.317 292.135 235.53C291.373 234.717 290.408 234.095 289.24 233.663C288.097 233.232 286.776 233.016 285.278 233.016C283.399 233.016 281.71 233.371 280.211 234.082C278.713 234.768 277.532 235.784 276.669 237.13C275.83 238.451 275.411 240.089 275.411 242.044C275.411 243.974 275.83 245.612 276.669 246.958C277.532 248.279 278.713 249.282 280.211 249.968C281.71 250.653 283.399 250.996 285.278 250.996C286.776 250.996 288.097 250.793 289.24 250.387C290.382 249.955 291.335 249.346 292.097 248.558C292.859 247.746 293.417 246.793 293.773 245.701H298.001ZM306.819 240.139H324.952V243.835H306.819V240.139ZM324.343 229.663H328.647V254.349H324.343V229.663ZM302.972 229.663H307.315V254.349H302.972V229.663Z" fill="white"/>
</svg>
